<?xml version="1.0" encoding="utf-8"?>
<!-- Generator: Adobe Illustrator 19.1.0, SVG Export Plug-In . SVG Version: 6.00 Build 0)  -->
<!DOCTYPE svg PUBLIC "-//W3C//DTD SVG 1.1//EN" "http://www.w3.org/Graphics/SVG/1.1/DTD/svg11.dtd">
<svg version="1.1" xmlns="http://www.w3.org/2000/svg" xmlns:xlink="http://www.w3.org/1999/xlink" x="0px" y="0px"
	 viewBox="0 0 159 207.2" style="enable-background:new 0 0 159 207.2;" xml:space="preserve">
<style type="text/css">
	.st0{display:none;}
	.st1{display:inline;fill:#B9D9E3;}
	.st2{fill:#EEDD54;}
	.st3{fill:#BA002C;}
	.st4{fill:#FFFFFF;}
</style>
<g id="レイヤー_2" class="st0">
	<rect x="-173.1" y="9.4" class="st1" width="1000" height="800"/>
</g>
<g id="レイヤー_1">
	<g>
		<polygon class="st2" points="22,33.8 11.3,29.8 22,25.8 		"/>
		<ellipse class="st3" cx="22.8" cy="44.7" rx="7.8" ry="12.7"/>
		<path class="st4" d="M94.8,112.6l0.1,0.2c0.1,2.1,1.2,4.4,3.3,5.8c2.1,1.4,4.6,1.7,6.6,0.9l0.2,0c0,0,34.8-14.4,43.3-27
			c7.1-10.4,2.8-25.6-9.5-33.9c-12.3-8.3-28-6.7-35,3.7C95.3,75,94.8,112.6,94.8,112.6z"/>
		<path class="st3" d="M46.3,21.4c-1,1.3-2.9,2.2-4.5,2.2h-9.7c-1.6,0-3.5-0.9-4.5-2.1l-5.9-7.6C17.9,9,18.9,0,36.9,0
			c18,0,19,9,15.3,13.8L46.3,21.4z"/>
		<path class="st4" d="M23.5,101.4l43-13.2L52.4,29.2l0,0c-0.3-1.7-1-3.2-2-4.6c-2.5-3.9-8.1-6.6-14.6-6.6c-8.8,0-16,4.9-16,11
			c0,5.8,6.4,10.5,14.5,11c0,0,0.1,0,0.1,0.1L23.5,101.4z"/>
		<path class="st4" d="M78.5,76.4c-27.7-4.1-52.3,7-55,25c-2.3,15.6,12.7,31.1,34.8,37.6l14,17.4h9.1l12.5-15.5
			c16.1-3.3,28-12.3,29.8-24.5C126.5,98.4,106.2,80.6,78.5,76.4z"/>
		<polygon class="st2" points="79.4,198.8 74.4,198.8 72.3,156.4 81.4,156.4 		"/>
	</g>
</g>
</svg>
