<?xml version="1.0" encoding="utf-8"?>
<!-- Generator: Adobe Illustrator 19.1.0, SVG Export Plug-In . SVG Version: 6.00 Build 0)  -->
<!DOCTYPE svg PUBLIC "-//W3C//DTD SVG 1.1//EN" "http://www.w3.org/Graphics/SVG/1.1/DTD/svg11.dtd">
<svg version="1.1" id="レイヤー_1" xmlns="http://www.w3.org/2000/svg" xmlns:xlink="http://www.w3.org/1999/xlink" x="0px"
	 y="0px" viewBox="0 0 153.8 139.5" style="enable-background:new 0 0 153.8 139.5;" xml:space="preserve">
<style type="text/css">
	.st0{fill:#22A439;}
	.st1{fill:#52B133;}
	.st2{fill:#94C51F;}
	.st3{fill:#007F40;}
	.st4{fill:#7ABC29;}
	.st5{fill:#BED977;}
	.st6{fill:#ADC563;}
	.st7{fill:#C4DA64;}
</style>
<g>
	<path class="st0" d="M82.9,9.6c41.3,2.4,66.3,39.3,64.7,66.9c-2.1,35.4-31.5,55.4-72.2,53c-32.5-1.9-67.8-22.1-65.5-61.1
		C11.2,46.8,37.5,7,82.4,9.6L82.9,9.6z"/>
	<path class="st1" d="M58.7,19.9c5.2,3.3,20.4,14.5,31.2,14.7c-2,8.3,0.2,13.1-13.6,8.7C62.5,38.8,58.7,19.9,58.7,19.9z"/>
	<path class="st2" d="M73,8c11.3-0.6,24.9,3.7,31.2,6.5c-5.5-3.3-22.5-1.7-28.1,2.4c-5.8-6.5-22.3-3-28.7,0.8C52,10.9,68.5,8.2,73,8
		z"/>
	<path class="st3" d="M101.3,11.9c-6.9,2.2-24.6,19.1-25,31.3c-0.1,4.6,5.1,8.9,5.9,9.2c0.7,0.3,17.2-15,17.2-15L101.3,11.9z"/>
	<path class="st4" d="M101.3,11.9c-0.6,0.3-3.4,1-3.4,1c-7.5,4.3-21.6,21.1-19.9,37c1.7,15.9,15.8,44.3,8.5,57.1
		c-3.5,6.1-8.8,14.5-12.1,22.5c0.4,0,0.7,0.1,1.1,0.1c40.6,2.4,70.1-17.6,72.2-53C148.9,52.8,132.8,21.6,101.3,11.9z"/>
	<path class="st5" d="M147.5,76.5c0.8-14.4-4.8-31.5-16.4-45c6.9,14,15.8,29.5,11.4,46.9c-8.3,32.4-46.9,42.3-54.7,44.5
		c-4.2,1.2-4,3.4-8.7,6.7C117.9,130.6,145.5,110.8,147.5,76.5z"/>
	<path class="st6" d="M89.2,121.6c7,1.6,28.1,0.2,39-6.4c-6.9,7.7-40.4,20.4-55.1,14.2C58.4,123.3,89.2,121.6,89.2,121.6z"/>
	<path class="st2" d="M96.6,119.4c5.5-2.2,8.9,2,12-2.6c1.9-2.8,0.2-8,1.4-12.4c1.3-4.6,5.3-8.5,5.3-11.5c-0.1-5.8-10-11.5-11-16.6
		c-1.9-9.1-1.6-16.6-7.1-21.6c-2.4-2.2-6.3-10.7-11-13.5c-4.7-2.7-12.4-5.9-14-7.4c-3.1-2.8-15.4-7.4-8.9-17c0,0-9.4,3.4-17.8-1
		C21.1,27.7,10.8,53,9.9,68.5c-2.3,38.9,33,59.2,65.5,61.1c1.2,0.1,2.3,0.1,3.5,0.1C90.9,127,91,121.6,96.6,119.4z"/>
	<path class="st7" d="M79.9,95.6c-8.6,1.8-25.7,6.3-33.1,17c-6.9-10.5-8.7-22.4-7.7-33.5c5.1-3.8,15-10.6,21.7-11.3
		c9.4-0.9,21.3-15.4,21.3-15.4S70.1,63.6,59,64.8c-5.6,0.6-12.9,3.4-19,7.4c2.8-15,9.9-27.8,14.6-32.8c-6.1,2.3-19.5,18.6-19.5,18.6
		c-5.2-1.6-8.4-13.6-8.4-13.6s-0.2,2.7,1.3,7.6c1.5,4.9,4.3,10.5,4.3,10.5l-1.9,20.3c-2.2-0.1-6.2-4.2-8.9-8.5
		c-2.2-3.5-3.3-7.3-3.3-7.3c0,11.2,9.6,16.3,11.6,26.3c2,10,4.8,17.3,4.8,17.3c-8.4-3.1-18.9-22.7-18.9-22.7
		c5.6,19.2,27.5,35.8,33.9,38.8c6.4,3,13.1,1.4,13.1,1.4c-4.7-3-8.5-6.4-11.7-10c4.5-4.3,15.8-14.6,23.3-17.3
		c9.6-3.4,18.2-6.8,19.5-12.7C90.9,91.8,88.9,93.6,79.9,95.6z"/>
</g>
</svg>
