<?xml version="1.0" encoding="utf-8"?>
<!-- Generator: Adobe Illustrator 19.1.0, SVG Export Plug-In . SVG Version: 6.00 Build 0)  -->
<!DOCTYPE svg PUBLIC "-//W3C//DTD SVG 1.1//EN" "http://www.w3.org/Graphics/SVG/1.1/DTD/svg11.dtd">
<svg version="1.1" xmlns="http://www.w3.org/2000/svg" xmlns:xlink="http://www.w3.org/1999/xlink" x="0px" y="0px"
	 viewBox="0 0 248.4 189.2" style="enable-background:new 0 0 248.4 189.2;" xml:space="preserve">
<style type="text/css">
	.st0{display:none;}
	.st1{display:inline;fill:#B9D9E3;}
	.st2{fill:#F6F2EB;}
	.st3{fill:#984D12;}
	.st4{fill:#4F2A06;}
</style>
<g id="レイヤー_2" class="st0">
	<rect x="-173.1" y="-8.6" class="st1" width="1000" height="800"/>
</g>
<g id="レイヤー_1">
	<g>
		<path class="st2" d="M58.7,0c3.5,1.2,4.1,8.5,1.4,16.3c-2.7,7.7-7.8,13-11.3,11.8L58.7,0z"/>
		<path class="st3" d="M232.5,52.4L232.5,52.4l0-10.6c0-6.7-5.1-12.2-11.3-12.2H67.5c-0.1,0-0.2,0-0.2,0c-3.8-6.5-10.9-10.9-19-10.9
			c-6.2,0-11.8,2.5-15.8,6.6l0,0l0,0c-0.6,0.6-1.2,1.3-1.7,2L10.1,51.4l0,0C9,52.5,8.4,54,8.4,55.7c0,3.6,2.9,6.5,6.5,6.5
			c1.3,0,2.4-0.4,3.4-1l0,0c1.8-1.2,10.5-5.3,21-0.2l0,0c2.7,1.2,5.8,1.9,9,1.9c1.8,0,3.5-0.2,5.2-0.6c1.7,19.7,13.8,38.8,37.3,51.8
			l11.7,23.1v39h12.9v-39l5.8-11.5c27.9,6.7,54,3,67.9-8.8l10.3,20.3v39h12.9v-39l14.4-28.5C233.7,95.8,232.5,61.7,232.5,52.4z"/>
		<rect x="102.5" y="171.2" class="st4" width="12.9" height="5"/>
		<rect x="199.3" y="171.2" class="st4" width="12.9" height="5"/>
		<path class="st3" d="M242.3,93.5h-2V48.7c0-10.3-1.9-10.3-3.6-10.3H228v-2h8.6c4.3,0,5.6,3,5.6,12.3V93.5z"/>
		<path class="st3" d="M241.3,90.6c-3.9,0-7.1,3.2-7.1,7.1c0,11.2,7.1,15.4,7.1,15.4s7.1-4.2,7.1-15.4
			C248.4,93.8,245.2,90.6,241.3,90.6z"/>
		<path class="st4" d="M50.8,30.3c4.5,5.5,13,6.1,19,1.2c6-4.9,7.1-13.3,2.6-18.8L50.8,30.3z"/>
	</g>
</g>
</svg>
