<?xml version="1.0" encoding="utf-8"?>
<!-- Generator: Adobe Illustrator 19.1.0, SVG Export Plug-In . SVG Version: 6.00 Build 0)  -->
<!DOCTYPE svg PUBLIC "-//W3C//DTD SVG 1.1//EN" "http://www.w3.org/Graphics/SVG/1.1/DTD/svg11.dtd">
<svg version="1.1" id="レイヤー_1" xmlns="http://www.w3.org/2000/svg" xmlns:xlink="http://www.w3.org/1999/xlink" x="0px"
	 y="0px" viewBox="0 0 228.8 112.5" style="enable-background:new 0 0 228.8 112.5;" xml:space="preserve">
<style type="text/css">
	.st0{fill:#FCEDF2;}
	.st1{fill:#EF8A84;}
	.st2{fill:#DD7E7F;}
	.st3{fill:#F19B9A;}
	.st4{fill:#F0999A;}
	.st5{fill:#E27975;}
	.st6{fill:#FBF8F5;}
	.st7{fill:#070202;}
	.st8{fill:#A8101F;}
	.st9{fill:#EFA19F;}
	.st10{fill:#F0DCDB;}
	.st11{fill:#DE6F6B;}
	.st12{fill:#F5E2E6;}
</style>
<g>
	<path class="st0" d="M12.3,72.1c1.7-1.9,8.3-11.9,11.1-15.3c2.8-3.4,10.7-12.3,18.8-16.6c8.1-4.3,19.2-9.1,29-9.7
		c9.8-0.5,26.2,2.1,38.9,7.2c12.8,5.1,31.1,14.4,37.9,17.6c6.7,3.2,8.1,5.2,18,4.6c9.9-0.7,15.2-5.1,21.5-7.9
		c6.3-2.8,27.7-14.8,31.7-14c-2.7,4-16.1,21.1-18.7,24.6c-2.6,3.5-4.2,5.9-3.5,6.6c0.7,0.7,11.1,15.2,15.8,18.8
		c4.7,3.6,5.9,7.8,5.4,8.2c-0.5,0.4-14.8-4.8-20.3-7.1c-5.5-2.3-24.8-10.6-32.2-10.9c-7.4-0.3-21.2,7.5-29.9,13.8
		c-8.7,6.3-39.1,8.3-58.9,8.3c-19.9,0-46.4-7.7-53.6-10.2c-7.1-2.6-9.8-5.5-11.3-7.2c-1.5-1.7,0.1-2.7,1.6-2.6
		c1.5,0.1,10.5,2.1,10.5,2.1S17,78.3,13.3,78C9.5,77.7,11,74.3,12.3,72.1z"/>
	<path class="st1" d="M117.4,97.4c2,1.3,7.8,3.2,12.8,3.8c-0.7-0.6,2.4-0.1,4.7-0.3c-0.9-1,3.5-1.1,6.3-1.5
		c-1.2-0.9-0.3-1.4,1.6-1.9c-0.6-0.8,0.9-1.8,2.3-2.4c-0.8-0.5,1.4-1.1,3.1-1.7c-0.9-1-0.5-1.2,1.2-1.5c-1.2-1.1-1.2-1.3,0.4-2
		c-0.6-0.9,0-1.4,1.5-1.9c-1.1-0.6-1-1.1-0.1-1.7c-0.6-0.6,0-1.5,1.2-1.8c-0.5-0.8,0.9-1.3,2.5-1.4c-0.1-0.6,1-0.8,2-1
		c-0.3-1,1.3-1.4,1.3-1.4s0.8-1.3-1-1.6C155.6,78.6,114.6,95.3,117.4,97.4z"/>
	<path class="st2" d="M123.8,95.5c3,1.8,7.6,2.9,13,3.2c-4.2-1.7-9.3-2.5-10.3-4.6L123.8,95.5z"/>
	<path class="st2" d="M131.4,91.8c1.6,1.3,6.4,3.1,11.1,3c0,0-6.4-1.1-8.2-4.4L131.4,91.8z"/>
	<path class="st2" d="M139.6,88.3c0,0,2.6,2,6.8,1.6c-3.4,1-8.3-0.4-8.3-0.4L139.6,88.3z"/>
	<path class="st2" d="M142.8,85.5c0,0,2.6,2,6.8,1.6c-3.4,1-8.3-0.4-8.3-0.4L142.8,85.5z"/>
	<path class="st1" d="M178,81.2c3.5-1.2,16-5,14.8-11.4c-0.8-3.9-3.8-11.2-6.5-17.3c-5.8,2.8-11,6.7-20.3,7.4
		c-9.9,0.7-11.3-1.3-18-4.6c-6.7-3.2-25.1-12.5-37.9-17.6c-12.8-5.1-29.1-7.8-38.9-7.2c-9.8,0.5-20.9,5.4-29,9.7
		c-8.1,4.3-16,13.3-18.8,16.6c-2.8,3.4-9.4,13.4-11.1,15.3c-1.3,2.1-2.8,5.6,0.9,5.9c3.8,0.3,10.9,4.4,10.9,4.4s-0.1,0-0.3-0.1
		c2.6,1.3,9,3.6,14,3c2.2-0.3,3.7-1.3,5.2-2.8c5.3-5.4,14.6-11.5,24.1-11.5c9.4,0,46.8-1.6,57.1-2c10.3-0.4,42-2,50.3,2
		c6.7,3.2,4.1,8.3,3.1,9.9C177.7,81.1,177.9,81.1,178,81.2z"/>
	<path class="st3" d="M64.7,31.7c0,0,3-8.2,5.1-10c1.2,0.6,1.3,0.1,1.8-0.4c0.5-0.5,1.9-5.2,2.9-5.4c1.7,2,4.6,1.6,5.6,0.6
		c1.2,2.4,5.1,2.6,6.6,2.3c1.2,2.2,3.1,3.2,5.3,2c2.2-1.2,3-1.7,3-1.7s0,2,1.8,3.3c1.8,1.2,5.1-0.5,5.1-0.5s-1.6,4,2.2,4.5
		c1.5-0.7,3.4-2.1,3.7-2.1c0.2,0-0.8,2.3,1.4,3.3c2.2,0.9,5.1-0.9,5.1-0.9s-0.5,1.4,1.5,2.6c1.9,1.2,5.2,0.3,5.2,0.3s-1,2.8,0.4,3.5
		l4-1.3c0,0-1.2,2.3,0.2,3.2c1.4,0.9,2.2-0.2,2.2-0.2s-0.2,1.3,1.3,1.9c1.6,0.6,3,0.4,4,0.1c1,1.2,1.4,1.6,2.7,1.6
		c-0.7,0.9-1.5,2.1,0.2,2.6c1.6,0.5,2.7,0.8,4.3,0.3c0.9,1.6,1.3,1.9,2.3,2c0.3,1.2,0.2,1.9,1.9,2c0.9,1.6,1.7,2.6,4.3,3
		c-0.4,1.5,0.2,2.3,1.6,2.6c0.4,1.2,1.5,2.2,3,2.3c-0.8,1.2-1.5,2.1,1,2.7c2.5,0.6,3,0.9,3,0.9s-1.6,1.1-0.9,2.1
		c0.6,1-44.3-11.9-55.1-14.7C90.5,41.6,64.7,31.7,64.7,31.7z"/>
	<path class="st2" d="M132.6,40.6c-2.4,0.8-6.1,2.9-4.7,6.1l2.4,0.6C130.2,47.3,127.7,43.3,132.6,40.6z"/>
	<path class="st2" d="M126.1,38.2c-2.4,0.8-6.1,2.9-4.7,6.1l2.4,0.6C123.8,44.9,121.2,41,126.1,38.2z"/>
	<path class="st2" d="M137.7,43.9c-2.4,0.8-6.1,2.9-4.7,6.1l2.4,0.6C135.3,50.6,132.8,46.7,137.7,43.9z"/>
	<path class="st2" d="M143.4,46.9c-2.4,0.8-6.1,2.9-4.7,6.1l2.4,0.6C141,53.5,138.5,49.6,143.4,46.9z"/>
	<path class="st2" d="M79,19.3c0,0-5.3,4.8-5.6,11.4l4.2,1.9C77.7,32.5,74,24.3,79,19.3z"/>
	<path class="st2" d="M86.3,20.7c0,0-5.3,4.8-5.6,11.4l4.2,1.9C85,33.9,81.2,25.7,86.3,20.7z"/>
	<path class="st2" d="M94.3,21.1c0,0-5.3,4.8-5.6,11.4l4.2,1.9C93,34.4,89.3,26.2,94.3,21.1z"/>
	<path class="st2" d="M100.7,24.8c0,0-5.3,4.8-5.6,11.4l4.2,1.9C99.4,38.1,95.7,29.9,100.7,24.8z"/>
	<path class="st2" d="M107.1,26.2c0,0-5.3,4.8-5.6,11.4l4.2,1.9C105.7,39.4,102,31.2,107.1,26.2z"/>
	<path class="st2" d="M113.4,28.3c0,0-5.3,4.8-5.6,11.4l4.2,1.9C112.1,41.5,108.4,33.3,113.4,28.3z"/>
	<path class="st2" d="M119.5,30.9c0,0-5.3,4.8-5.6,11.4l4.2,1.9C118.2,44.2,114.5,36,119.5,30.9z"/>
	<path class="st4" d="M219.8,37.4c-4-0.8-25.4,11.1-31.7,14c-3.9,1.7-7.4,4.1-11.9,5.8c4.8,1.9,8.8,6.5,9.1,10.3
		c0.4,4.4-2,8.3-7.4,12.6c-0.1,0.1-0.2,0.1-0.2,0.2c8.1,2.7,17.3,6.7,20.9,8.1c5.5,2.3,19.7,7.5,20.3,7.1c0.5-0.4-0.7-4.6-5.4-8.2
		c-4.7-3.6-15.2-18.1-15.8-18.8c-0.7-0.7,0.9-3.1,3.5-6.6C203.7,58.4,217.1,41.4,219.8,37.4z"/>
	<path class="st1" d="M63.5,76.5c1.7,1.7,3.9,3.7,4.1,5.8c0.2,2.1-1,3.5-1.9,4.2c-1,0.6,0.1,0.9,1.6,1c1.5,0.1,14.4,4.3,16.8,5.5
		c-1.9-1.6-2.8-2.7-2.8-2.7s7.2,1.3,9.3,3.2c-1.1-1.9,0.6-1.9,2.7-1.5c2,0.4,7,1.7,7,1.7l-9.9-4.3c0,0,13.4,2.1,15.6,2.5
		c-3.7-2.1-6.4-3.4-6.8-3.8c-0.3-0.3,6,0.1,6.8-0.3c-4-0.9-11.1-2.1-13.2-3c2.9-0.2,3.8-0.9,3.8-0.9S78.3,80.5,74.6,79
		c-3.8-1.5-8.2-3.8-9.8-4.8C63.2,73.1,61.7,74.9,63.5,76.5z"/>
	<path class="st5" d="M219.2,38c-4-0.8-25.4,11.1-31.7,14c-3.9,1.7-7.4,4.1-11.9,5.8c4.8,1.9,8.8,6.5,9.1,10.3
		c0.4,4.4-2,8.3-7.4,12.6c-0.1,0.1-0.2,0.1-0.2,0.2c8.1,2.7,17.3,6.7,20.9,8.1c5.5,2.3,19.7,7.5,20.3,7.1c0.5-0.4-0.7-4.6-5.4-8.2
		c-4.7-3.6-15.2-18.1-15.8-18.8c-0.7-0.7,0.9-3.1,3.5-6.6C203.1,59.1,216.5,42,219.2,38z"/>
	<path class="st6" d="M35.4,55.8c1.6,1.1,2.5,3.7,1.7,6c-0.8,2.3-3.2,3.9-6.1,3.7C28,65.4,26.3,64,25.8,61c-0.5-3,2.1-5.5,4.2-5.8
		C32,54.9,33.9,54.9,35.4,55.8z"/>
	<path class="st7" d="M31.3,56.8c2.5-0.2,3.2,2,3.2,3.7c0,1.7-1.3,2.8-3.2,2.8c-1.9,0-3.2-1-3.2-2.7C27.9,58.9,29,56.9,31.3,56.8z"
		/>
	<path class="st8" d="M44.3,51.5c5.2,5.2,9.7,10.5,8.8,18.3c-0.9,7.7-15.3,15.7-15.3,15.7c6.4-1.3,17.6-7.3,17.2-17.6
		C54.6,57.5,44.3,51.5,44.3,51.5z"/>
	<path class="st2" d="M66,75.6c2.2,1.8,14.4,8.7,22.7,9.7C82.3,86.1,68,78.6,68,78.6L66,75.6z"/>
	<path class="st9" d="M24.5,82.8c-0.8-0.6-5.4-2.9-7-3.5c-1.6-0.6-4.9-1.1-6.1-1.4c-1.2-0.4-1-2.6-0.9-3.1c0.1-0.4,0.4-2,3-1.5
		c2.6,0.6,5.7,2.3,8,3.6C23.8,78.2,28.1,82.7,24.5,82.8z"/>
	<path class="st10" d="M25.2,83.1c-0.4,0.6-2.9,0.6-6.3,0.1c-3.4-0.5-6.4,0.1-7.2-0.7C11,81.7,11.1,79.8,13,80
		C15,80.2,24,81.3,25.2,83.1z"/>
	<path class="st11" d="M153.6,60.5c1.4-0.1,2.9-0.4,4.4-0.9c-3.5-0.7-5.6-2.2-9.9-4.3c-6.7-3.2-25.1-12.5-37.9-17.6
		c-12.8-5.1-29.1-7.8-38.9-7.2c-9.8,0.5-20.9,5.4-29,9.7c-4.2,2.3-8.4,5.8-11.9,9.2c3.9-0.6,12-2.7,18-3.8c17.3-3.1,30.4-5,52.8,1.2
		C128.6,54.3,146.4,60.8,153.6,60.5z"/>
	<path class="st12" d="M122.5,87.5c-7.5,3.7-19.5,9-32.2,12.5c18.1-0.7,38.6-3,45.6-8c8-5.8,20.4-12.9,28.1-13.7
		c-0.2,0-0.4-0.1-0.6-0.1C153.4,76,133.7,82,122.5,87.5z"/>
</g>
</svg>
