<?xml version="1.0" encoding="utf-8"?>
<!-- Generator: Adobe Illustrator 19.1.0, SVG Export Plug-In . SVG Version: 6.00 Build 0)  -->
<!DOCTYPE svg PUBLIC "-//W3C//DTD SVG 1.1//EN" "http://www.w3.org/Graphics/SVG/1.1/DTD/svg11.dtd">
<svg version="1.1" xmlns="http://www.w3.org/2000/svg" xmlns:xlink="http://www.w3.org/1999/xlink" x="0px" y="0px"
	 viewBox="0 0 214.6 147.8" style="enable-background:new 0 0 214.6 147.8;" xml:space="preserve">
<style type="text/css">
	.st0{display:none;}
	.st1{display:inline;fill:#B9D9E3;}
	.st2{fill:#EAC9D2;}
	.st3{fill:#D587AB;}
	.st4{fill:#4F2A06;}
</style>
<g id="レイヤー_2" class="st0">
	<rect x="-135.2" y="-71.2" class="st1" width="1000" height="800"/>
</g>
<g id="レイヤー_1">
	<g>
		<path class="st2" d="M211.5,24.2c1.4,4.2-3.5,9.6-10.8,11.9c-7.3,2.4-14.4,0.8-15.7-3.4L211.5,24.2z"/>
		<path class="st2" d="M196.5,54.2c0-24.6-14-44.6-88.3-44.6C59.5,9.6,20,29.5,20,54.2c0,0.3,0,0.5,0,0.8c0,0,0,0,0,0
			c0,6.5-2.1,9-8.6,9c-4.1,0-8.2,0-8.2,0l0,16.3c0,0,15.9,8.8,49.3,14.3l11.9,23.4v16.2h10.8v-16.2l10.1-19.8
			c6.4,0.4,13.2,0.6,20.4,0.7c0.9,0,1.7,0,2.6,0c13,0,25.4-1,36.5-3.1l11.4,22.3v16.2h10.8v-16.2l24-45.9l0,0
			C194.5,66.8,196.5,60.9,196.5,54.2z"/>
		<path class="st3" d="M46.9,32.2c-1.9,5.9-11.7,8.1-22,4.9C14.6,33.9,7.8,26.5,9.6,20.6L46.9,32.2z"/>
		<rect x="64.3" y="128.6" class="st4" width="10.8" height="5.5"/>
		<rect x="156.1" y="128.6" class="st4" width="10.8" height="5.5"/>
	</g>
</g>
</svg>
